<svg width="1280" height="720" xmlns="http://www.w3.org/2000/svg" xmlns:xlink="http://www.w3.org/1999/xlink" overflow="hidden"><defs><clipPath id="clip0"><rect x="0" y="0" width="1280" height="720"/></clipPath></defs><g clip-path="url(#clip0)"><rect x="0" y="0" width="1280" height="720" fill="#FFFFFF"/><rect x="518.5" y="32.5001" width="197" height="272" stroke="#2F528F" stroke-width="1.33344" stroke-miterlimit="8" fill="#8FAADC"/><text fill="#FFFFFF" font-family="Calibri,Calibri_MSFontService,sans-serif" font-weight="400" font-size="24" transform="translate(576.801 90)">Contrat:<tspan font-size="24" x="-49.0467" y="58">Id_contrat</tspan><tspan font-size="24" x="-49.0467" y="87">Contrat en euro</tspan><tspan font-size="24" x="-49.0467" y="116">Id_agence</tspan></text><rect x="980.5" y="32.5001" width="220" height="272" stroke="#2F528F" stroke-width="1.33344" stroke-miterlimit="8" fill="#8FAADC"/><text fill="#FFFFFF" font-family="Calibri,Calibri_MSFontService,sans-serif" font-weight="400" font-size="24" transform="translate(1068.42 75)">Site:<tspan font-size="24" x="-79.1267" y="58">Adresse</tspan><tspan font-size="24" x="-79.1267" y="87">Id_site</tspan><tspan font-size="24" x="-79.1267" y="116">Somme assurée</tspan><tspan font-size="24" x="-79.1267" y="144">ID_Zonier_RN</tspan></text><path d="M757.5 168.5C757.5 135.915 798.018 109.5 848 109.5 897.982 109.5 938.5 135.915 938.5 168.5 938.5 201.085 897.982 227.5 848 227.5 798.018 227.5 757.5 201.085 757.5 168.5Z" stroke="#2F528F" stroke-width="1.33344" stroke-miterlimit="8" fill="#8FAADC" fill-rule="evenodd"/><text fill="#FFFFFF" font-family="Calibri,Calibri_MSFontService,sans-serif" font-weight="400" font-size="24" transform="translate(833.018 147)">Est <tspan font-size="24" x="-29.8667" y="29">composé </tspan><tspan font-size="24" x="2.03333" y="58">de</tspan></text><path d="M715.5 168.5 757.346 168.5" stroke="#4472C4" stroke-width="0.666142" stroke-miterlimit="8" fill="none" fill-rule="evenodd"/><path d="M938.5 168.5 980.346 168.5" stroke="#4472C4" stroke-width="0.666142" stroke-miterlimit="8" fill="none" fill-rule="evenodd"/><rect x="518.5" y="503.5" width="197" height="204" stroke="#2F528F" stroke-width="1.33344" stroke-miterlimit="8" fill="#8FAADC"/><text fill="#FFFFFF" font-family="Calibri,Calibri_MSFontService,sans-serif" font-weight="400" font-size="24" transform="translate(577.434 542)">Agence:<tspan font-size="24" x="-49.68" y="57">Id</tspan><tspan font-size="24" x="-31.0133" y="57">_</tspan>region<tspan font-size="24" x="-49.68" y="86">Id_agence</tspan></text><path d="M526.5 416.5C526.5 383.915 567.018 357.5 617 357.5 666.982 357.5 707.5 383.915 707.5 416.5 707.5 449.085 666.982 475.5 617 475.5 567.018 475.5 526.5 449.085 526.5 416.5Z" stroke="#2F528F" stroke-width="1.33344" stroke-miterlimit="8" fill="#8FAADC" fill-rule="evenodd"/><text fill="#FFFFFF" font-family="Calibri,Calibri_MSFontService,sans-serif" font-weight="400" font-size="24" transform="translate(595.039 423)">gère</text><path d="M0 0 0.000104987 28.6147" stroke="#4472C4" stroke-width="0.666142" stroke-miterlimit="8" fill="none" fill-rule="evenodd" transform="matrix(1 0 0 -1 617.5 504.115)"/><path d="M0 0 0.000104987 52.3086" stroke="#4472C4" stroke-width="0.666142" stroke-miterlimit="8" fill="none" fill-rule="evenodd" transform="matrix(1 0 0 -1 617.5 356.809)"/><rect x="991.5" y="503.5" width="197" height="204" stroke="#2F528F" stroke-width="1.33344" stroke-miterlimit="8" fill="#8FAADC"/><text fill="#FFFFFF" font-family="Calibri,Calibri_MSFontService,sans-serif" font-weight="400" font-size="24" transform="translate(1035.32 541)">Zonier_RN:<tspan font-size="24" x="-34.3334" y="58">Id_Zonier_RN</tspan><tspan font-size="24" x="-34.3334" y="87">Indice de risque</tspan></text><path d="M999.5 409.5C999.5 376.915 1040.02 350.5 1090 350.5 1139.98 350.5 1180.5 376.915 1180.5 409.5 1180.5 442.085 1139.98 468.5 1090 468.5 1040.02 468.5 999.5 442.085 999.5 409.5Z" stroke="#2F528F" stroke-width="1.33344" stroke-miterlimit="8" fill="#8FAADC" fill-rule="evenodd"/><text fill="#FFFFFF" font-family="Calibri,Calibri_MSFontService,sans-serif" font-weight="400" font-size="24" transform="translate(1066.98 388)">Est à <tspan font-size="24" x="-25.1934" y="29">l’intérieur </tspan><tspan font-size="24" x="10.5333" y="58">de</tspan></text><path d="M0 0 0.000944882 35.3847" stroke="#4472C4" stroke-width="0.666142" stroke-miterlimit="8" fill="none" fill-rule="evenodd" transform="matrix(1 0 0 -1 1090.5 503.885)"/><path d="M1090.5 350.039 1090.5 304.5" stroke="#4472C4" stroke-width="0.666142" stroke-miterlimit="8" fill="none" fill-rule="evenodd"/><rect x="15.5001" y="503.5" width="221" height="204" stroke="#2F528F" stroke-width="1.33344" stroke-miterlimit="8" fill="#8FAADC"/><text fill="#FFFFFF" font-family="Calibri,Calibri_MSFontService,sans-serif" font-weight="400" font-size="24" transform="translate(34.144 555)">Régions Prospects:<tspan font-size="24" x="-9.73333" y="58">Id </tspan>region<tspan font-size="24" x="-9.73333" y="87">Nom référant</tspan></text><path d="M281.5 605.5C281.5 572.915 322.018 546.5 372 546.5 421.982 546.5 462.5 572.915 462.5 605.5 462.5 638.085 421.982 664.5 372 664.5 322.018 664.5 281.5 638.085 281.5 605.5Z" stroke="#2F528F" stroke-width="1.33344" stroke-miterlimit="8" fill="#8FAADC" fill-rule="evenodd"/><text fill="#FFFFFF" font-family="Calibri,Calibri_MSFontService,sans-serif" font-weight="400" font-size="24" transform="translate(329.131 613)">Contient</text><path d="M0 0 56.6151 0.000524934" stroke="#4472C4" stroke-width="0.666142" stroke-miterlimit="8" fill="none" fill-rule="evenodd" transform="matrix(1 0 0 -1 462.5 605.501)"/><path d="M281.074 605.501 236.5 605.5" stroke="#4472C4" stroke-width="0.666142" stroke-miterlimit="8" fill="none" fill-rule="evenodd"/><text font-family="Calibri,Calibri_MSFontService,sans-serif" font-weight="400" font-size="24" transform="translate(256.033 573)">1,n<tspan font-size="24" x="211.356" y="11">1,1</tspan><tspan font-size="24" x="421.202" y="-91">1,n</tspan><tspan font-size="24" x="396.98" y="-228">1,1</tspan><tspan font-size="24" x="465.345" y="-372">1,n</tspan><tspan font-size="24" x="676.586" y="-368">1,1</tspan><tspan font-size="24" x="854.462" y="-232">0</tspan><tspan font-size="24" x="866.629" y="-232">,1</tspan><tspan font-size="24" x="869.903" y="-83">0</tspan><tspan font-size="24" x="882.07" y="-83">,N</tspan><tspan font-size="32" x="-207.835" y="-495">Portefeuille client par région </tspan></text></g></svg>